# xmcd
#
# Track frame offsets:
#	150
#	13350
#	57022
#	68087
#	108312
#	139807
#	148495
#	206662
#	238375
#	241812
#	264007
#	270237
#	283955
#	291245
#
# Disc length: 4141 seconds
#
# Revision: 1
# Processed by: cddbd v1.5PL3 Copyright (c) Steve Scherf et al.
# Submitted via: CDex 1.50Beta5
#
DISCID=de102b0e
DTITLE=伶楽舎 - 祝賀の雅楽
DYEAR=1900
DGENRE=World
TTITLE0=平調調子
TTITLE1=萬歳楽(舞立)
TTITLE2=高麗双調音取
TTITLE3=地久破
TTITLE4=地久急
TTITLE5=太食調音取
TTITLE6=朝小子(管絃)
TTITLE7=合歓塩(管絃)
TTITLE8=迦陵頻音取
TTITLE9=迦陵頻急(舞立)
TTITLE10=太食調音取(舞立)
TTITLE11=長慶子(舞立)
TTITLE12=平調音取
TTITLE13=越天楽(管絃)
EXTD=
EXTT0=
EXTT1=
EXTT2=
EXTT3=
EXTT4=
EXTT5=
EXTT6=
EXTT7=
EXTT8=
EXTT9=
EXTT10=
EXTT11=
EXTT12=
EXTT13=
PLAYORDER=
